<svg id="Layer_1" data-name="Layer 1" xmlns="http://www.w3.org/2000/svg" xmlns:xlink="http://www.w3.org/1999/xlink" viewBox="0 0 2349.53 1365.86"><defs><style>.cls-1,.cls-2,.cls-3{fill:none;}.cls-2{stroke:#00aeef;}.cls-2,.cls-3{stroke-miterlimit:10;}.cls-3{stroke:#f7941d;}.cls-4{fill:url(#New_Pattern);}</style><pattern id="New_Pattern" data-name="New Pattern" width="164.41" height="161.57" patternTransform="translate(1298.23 -165.94) scale(1.62)" patternUnits="userSpaceOnUse" viewBox="0 0 164.41 161.57"><rect class="cls-1" width="164.41" height="161.57"/><path class="cls-2" d="M8.3,36.08C37.81,4,87.41,4.2,114.38,32.79c24.39,25.87,24.53,68.91,0,95.3-26.48,28.48-74.37,29.69-104.1,0"/><path class="cls-3" d="M156.11,36.08C126.6,4,77,4.2,50,32.79c-24.39,25.87-24.53,68.91,0,95.3,26.48,28.48,74.37,29.69,104.09,0"/></pattern></defs><title>showcase2</title><image width="1920" height="1280" transform="translate(0 365.63) scale(0.67 0.78)" xlink:href="pexels-nataliya-vaitkevich-7526023.jpg"/><polygon class="cls-4" points="2276.49 512.74 1980.46 599.32 1757.46 386.24 1830.5 86.58 2126.53 0 2349.53 213.08 2276.49 512.74"/></svg>